<?xml version="1.0" encoding="UTF-8"?>
<svg version="1.1" xmlns="http://www.w3.org/2000/svg" viewBox="0 0 24 24">
<path d="M0 0 C0.93439281 -0.0077114 1.86878563 -0.0154228 2.83149338 -0.02336788 C4.43817451 -0.03679339 6.04482801 -0.05610785 7.65132523 -0.08387852 C20.4266395 -0.16410223 29.49776315 5.15335855 38.46276855 13.8354187 C39.86181702 15.22811414 41.25541167 16.62630475 42.64416504 18.02926636 C43.76757545 19.15336411 43.76757545 19.15336411 44.91368103 20.3001709 C46.48662362 21.87611644 48.05715358 23.45447338 49.62536621 25.03512573 C52.0067736 27.43477866 54.39607459 29.82634341 56.78674316 32.21676636 C58.32302243 33.7579627 59.85884502 35.29961442 61.39416504 36.84176636 C62.4507003 37.89997086 62.4507003 37.89997086 63.52857971 38.97955322 C66.78611562 42.26790665 69.9502904 45.59262873 72.97619629 49.09616089 C76.52008037 53.19924928 80.28903499 57.03217416 84.13635254 60.84957886 C84.83672134 61.54853271 85.53709015 62.24748657 86.25868225 62.96762085 C88.46684337 65.17024425 90.67847916 67.36933966 92.89025879 69.56832886 C94.40025693 71.07330393 95.91002469 72.5785102 97.41955566 74.08395386 C101.0946352 77.74808715 104.77283235 81.40906366 108.45275879 85.06832886 C106.80552296 89.51882134 104.50701256 92.66553957 101.39025879 96.19332886 C100.3919443 97.34487683 99.3945623 98.49723382 98.39807129 99.65036011 C97.6521875 100.51008423 97.6521875 100.51008423 96.89123535 101.38717651 C94.11350397 104.63352041 91.47111618 107.99108077 88.81604004 111.33786011 C88.03615723 112.23891479 87.25627441 113.13996948 86.45275879 114.06832886 C85.93899689 114.72099731 85.42523499 115.37366577 84.89590454 116.04611206 C81.21206052 120.30461397 78.52836669 122.56314006 72.82214355 123.11593628 C70.68024948 123.17636425 68.53682105 123.19346935 66.39416504 123.17379761 C65.2504393 123.19178909 64.10671356 123.20978058 62.92832947 123.22831726 C60.51890999 123.25867139 58.10918743 123.27017184 55.69958496 123.2638855 C52.0290554 123.25585903 48.36296542 123.30641295 44.69299316 123.36715698 C42.34341396 123.38947861 39.99380027 123.40846943 37.64416504 123.42379761 C36.01252159 123.44218941 36.01252159 123.44218941 34.34791565 123.46095276 C25.45563579 123.41304312 17.56080513 122.16896745 10.94415283 115.81440735 C3.81450991 107.46723966 4.93455505 97.00650543 5.06213379 86.68942261 C5.06960482 84.90867247 5.07529367 83.12791405 5.07928467 81.34715271 C5.09447322 76.68632855 5.13369558 72.02601211 5.17810059 67.36538696 C5.2192005 62.59911973 5.23732697 57.83276953 5.25744629 53.06637573 C5.30019723 43.73347178 5.36836526 34.40094273 5.45275879 25.06832886 C4.79275879 25.39832886 4.13275879 25.72832886 3.45275879 26.06832886 C0.77894032 26.17408936 -1.8693959 26.21881559 -4.54382324 26.21981812 C-5.38101206 26.22405053 -6.21820087 26.22828294 -7.08075905 26.2326436 C-9.90552566 26.245727 -12.73026396 26.25170898 -15.55505371 26.25778198 C-17.57631605 26.26572364 -19.59757667 26.27411153 -21.61883545 26.28291321 C-25.99378969 26.30103179 -30.36873997 26.31602945 -34.74371338 26.32868958 C-41.73504952 26.34901947 -48.72634519 26.3766848 -55.71765137 26.40536499 C-69.40064831 26.46050095 -83.08366603 26.50835322 -96.76669312 26.55530548 C-135.36039278 26.68825453 -173.95402713 26.82944592 -212.54724121 27.06832886 C-213.50796539 27.07422531 -214.46868958 27.08012177 -215.45852661 27.0861969 C-226.28084706 27.15356637 -237.102699 27.23852078 -247.92449951 27.36497498 C-250.718062 27.39735024 -253.51155798 27.42332068 -256.30523682 27.44319153 C-260.02426413 27.47262485 -263.74256041 27.52041675 -267.46130371 27.57418823 C-268.51795227 27.578992 -269.57460083 27.58379578 -270.66326904 27.58874512 C-275.96904619 27.68889281 -280.08065903 27.87838137 -284.54724121 31.06832886 C-287.63775659 35.12481468 -287.97473397 38.63023303 -287.92476463 43.56968594 C-287.92912496 44.31991875 -287.93348528 45.07015156 -287.93797773 45.8431187 C-287.94895481 48.36534711 -287.93850071 50.88703125 -287.92819214 53.40925598 C-287.93164774 55.23245972 -287.93641164 57.05566136 -287.94237387 58.87885863 C-287.95492705 63.89553044 -287.94869386 68.91203161 -287.93941522 73.92870414 C-287.93264268 79.33642808 -287.94309706 84.74412216 -287.95135498 90.15184021 C-287.96471398 100.74846729 -287.96180485 111.34503073 -287.95311706 121.94166034 C-287.94634908 130.5522892 -287.94541995 139.1629002 -287.94868851 147.77353096 C-287.94914821 148.99783084 -287.94960791 150.22213072 -287.95008153 151.4835306 C-287.95104069 153.97048255 -287.95201333 156.45743449 -287.95299931 158.94438643 C-287.96155964 182.2799325 -287.95170916 205.61544325 -287.93559821 228.95098353 C-287.92219613 248.98319985 -287.92452098 269.01536127 -287.93835449 289.0475769 C-287.95440183 312.2965878 -287.96073384 335.54556772 -287.9515177 358.79458338 C-287.95056203 361.27282591 -287.94961892 363.75106845 -287.94868851 366.22931099 C-287.94822568 367.44872852 -287.94776285 368.66814604 -287.947286 369.92451562 C-287.94469345 378.52641027 -287.94907286 387.12828531 -287.95612717 395.73017693 C-287.96453303 406.21078777 -287.96228132 416.6913312 -287.94628493 427.1719343 C-287.93838968 432.52147901 -287.93533198 437.87091124 -287.94523239 443.22045517 C-287.95415388 448.11501714 -287.94928846 453.00936206 -287.93329974 457.90390427 C-287.92994111 459.67706434 -287.93167019 461.45024265 -287.9389271 463.22339105 C-287.9480214 465.62956668 -287.93872196 468.03499433 -287.92476463 470.44113064 C-287.93178813 471.13306 -287.93881163 471.82498937 -287.94604796 472.53788629 C-287.89310634 477.08991582 -286.94492764 480.20553657 -284.54724121 484.06832886 C-282.08608574 485.91267235 -282.08608574 485.91267235 -279.54724121 487.06832886 C-278.88724121 487.39832886 -278.22724121 487.72832886 -277.54724121 488.06832886 C-275.15458589 488.15835517 -272.79166499 488.18808159 -270.3991394 488.17243958 C-269.29004318 488.17108739 -269.29004318 488.17108739 -268.15854096 488.16970789 C-265.68178795 488.16541402 -263.20512251 488.15387065 -260.72839355 488.14230347 C-258.96492297 488.13763638 -257.20145126 488.13337953 -255.43797874 488.12950802 C-250.74895372 488.11782402 -246.05997517 488.09974918 -241.37097836 488.07990408 C-237.74929879 488.06505789 -234.12761249 488.05316816 -230.5059222 488.04128647 C-219.23985204 488.00391469 -207.97385845 487.95282631 -196.7078557 487.89919233 C-192.51302935 487.87936738 -188.31819991 487.86023924 -184.12337053 487.8410697 C-147.48882737 487.6733588 -110.85438738 487.48407348 -74.21999526 487.28627056 C-68.63409109 487.25611284 -63.04818603 487.22612112 -57.46228027 487.19625854 C-55.84187891 487.18759567 -55.84187891 487.18759567 -54.18874216 487.17875779 C-38.55186634 487.09559494 -22.91499146 487.02674314 -7.27799797 486.97034931 C3.7182987 486.93041898 14.71446311 486.87844727 25.71064568 486.81364727 C31.63029795 486.77918847 37.54979675 486.7512914 43.46954346 486.74047852 C48.81566698 486.73065079 54.16137542 486.70324292 59.50733566 486.66064072 C61.39174752 486.64881422 63.2762161 486.64365163 65.1606636 486.64599991 C67.66349296 486.64830773 70.16495924 486.6265598 72.66760254 486.59835815 C73.37952444 486.60495736 74.09144634 486.61155657 74.82494164 486.61835575 C79.7935925 486.5246332 82.62986544 485.18986171 86.45275879 482.06832886 C88.56445197 478.90078909 88.70172584 478.18520752 88.68322754 474.57223511 C88.68193848 473.63887329 88.68064941 472.70551147 88.67932129 471.74386597 C88.65998535 470.2029126 88.65998535 470.2029126 88.64025879 468.63082886 C88.63381348 467.55131958 88.62736816 466.4718103 88.62072754 465.35958862 C88.51197598 453.17176716 88.13255536 440.98761933 87.73748779 428.80622864 C87.67210143 426.64649787 87.62082766 424.48678385 87.57165527 422.32662964 C87.50468073 419.45451376 87.37035131 416.59543339 87.19519043 413.72799683 C86.82794339 406.31197088 86.8524725 400.94764591 91.97521973 395.22433472 C92.60718262 394.59535278 93.23914551 393.96637085 93.89025879 393.31832886 C95.17773703 391.91029228 96.46288604 390.50012245 97.74572754 389.08786011 C98.69391357 388.07779907 98.69391357 388.07779907 99.66125488 387.04733276 C102.24217933 384.19628704 104.47752857 381.13738817 106.70275879 378.00582886 C107.9037928 376.32392973 109.13786322 374.66279334 110.45275879 373.06832886 C111.11275879 373.06832886 111.77275879 373.06832886 112.45275879 373.06832886 C112.71697165 383.36248899 112.97794924 393.65672596 113.23506165 403.95106602 C113.35461083 408.73376471 113.47517677 413.51643277 113.5982666 418.29904175 C114.53958788 454.93170834 114.53958788 454.93170834 114.58166504 468.79879761 C114.58678101 469.67645279 114.59189697 470.55410797 114.59716797 471.45835876 C114.57128795 482.81961659 111.87697575 492.25122602 104.45275879 501.06832886 C93.04763732 511.61762957 81.36117329 512.51958607 66.53942871 512.56027222 C64.8311507 512.5756552 63.12288363 512.59229696 61.41462898 512.61008644 C56.7562668 512.65481406 52.09795888 512.68123064 47.43944573 512.70430112 C42.43584188 512.73212866 37.43237993 512.77655109 32.42887878 512.81855774 C21.64722394 512.90573616 10.86550734 512.9708137 0.08367157 513.03081512 C-6.46826934 513.06735015 -13.02017531 513.108569 -19.57208252 513.15066528 C-47.38050916 513.32790542 -75.18903198 513.46529485 -102.99775708 513.58574045 C-111.00408886 513.62057418 -119.01040801 513.65765495 -127.01672363 513.6960144 C-150.08225731 513.80633208 -173.14776516 513.91001456 -196.21342826 513.98953366 C-207.30306497 514.02782752 -218.39247768 514.07498592 -229.48191684 514.15225679 C-235.57062729 514.19455249 -241.65933049 514.22796352 -247.7481361 514.25312728 C-251.09574537 514.26744125 -254.44295549 514.28845072 -257.79047203 514.31979561 C-261.33423836 514.35253864 -264.87761609 514.36693651 -268.42150879 514.37667847 C-269.41946535 514.39076941 -270.41742191 514.40486034 -271.44561958 514.41937828 C-282.9665986 514.40496809 -293.14697233 510.81848286 -301.77770996 503.06442261 C-310.5033966 493.91309272 -313.70814248 483.89187374 -313.68146229 471.43224239 C-313.68381452 470.67957617 -313.68616675 469.92690994 -313.68859026 469.15143564 C-313.69525205 466.62705029 -313.69482289 464.10271675 -313.69441223 461.57832336 C-313.6977126 459.75099788 -313.70143854 457.92367313 -313.70555371 456.0963493 C-313.71556194 451.0727035 -313.71928861 446.04906965 -313.72194302 441.0254153 C-313.72584951 435.60803844 -313.73542755 430.19067101 -313.74415588 424.77330017 C-313.76390958 411.6899757 -313.7739847 398.60665046 -313.78288367 385.5233148 C-313.78726799 379.36102774 -313.7926344 373.19874154 -313.79787254 367.03645515 C-313.81488302 346.55026013 -313.82937736 326.06406565 -313.83662128 305.57786465 C-313.83853115 300.2627557 -313.84045149 294.94764677 -313.84240723 289.63253784 C-313.84264738 288.97222487 -313.84288753 288.3119119 -313.84313495 287.63158945 C-313.85127123 265.56266477 -313.87650024 243.49380064 -313.9099879 221.424901 C-313.94306202 199.449296 -313.96107033 177.4737194 -313.96426553 155.49808937 C-313.96643019 143.16083025 -313.97517266 130.82365263 -314.0007267 118.48641777 C-314.02243838 107.9800448 -314.03048172 97.47377314 -314.02075992 86.96738028 C-314.01621675 81.60881875 -314.01810269 76.25046627 -314.03752136 70.89193344 C-314.05516411 65.98096782 -314.05414614 61.07036356 -314.03862407 56.15939403 C-314.03624972 54.38815155 -314.04056251 52.61688397 -314.05245272 50.84567981 C-314.13702266 37.409524 -313.3387842 24.31109503 -303.54724121 14.06832886 C-295.81536706 6.27228978 -288.20352257 1.99919614 -277.1529541 1.87887573 C-276.50288013 1.8705626 -275.85280617 1.86224947 -275.18303299 1.85368443 C-272.9620148 1.82668706 -270.74099113 1.8068401 -268.51989746 1.78707886 C-266.86968148 1.76911096 -265.21946895 1.75082435 -263.56925964 1.73225403 C-258.91229994 1.68154916 -254.2552957 1.63792759 -249.59825134 1.59580612 C-246.60414121 1.56827737 -243.61005422 1.53892379 -240.6159668 1.5090332 C-191.17767896 1.01859809 -141.73710744 0.77626396 -92.29724121 0.50582886 C-91.27584628 0.5002383 -90.25445134 0.49464775 -89.20210505 0.48888779 C-75.30156491 0.41289918 -61.40101591 0.33873135 -47.50045609 0.266433 C-44.75303161 0.25209955 -42.00560796 0.23761391 -39.25818443 0.22309685 C-37.49082318 0.21380628 -35.72346186 0.20452935 -33.95610046 0.19526672 C-32.67763944 0.18855116 -32.67763944 0.18855116 -31.37335092 0.18169993 C-25.08901642 0.14916891 -18.80466818 0.12279168 -12.52029818 0.09820348 C-8.34662224 0.08051588 -4.1734465 0.04649924 0 0 Z M30.45275879 42.06832886 C30.45275879 60.54832886 30.45275879 79.02832886 30.45275879 98.06832886 C48.27275879 98.06832886 66.09275879 98.06832886 84.45275879 98.06832886 C82.76710328 94.69701783 81.77249598 93.14392205 79.21569824 90.62008667 C78.55773758 89.96550476 77.89977692 89.31092285 77.22187805 88.63650513 C76.51045151 87.93853821 75.79902496 87.24057129 75.06604004 86.52145386 C74.33080612 85.79142151 73.5955722 85.06138916 72.83805847 84.30923462 C70.48515629 81.97413397 68.12570207 79.64580438 65.76525879 77.31832886 C63.42349407 75.00433019 61.08325364 72.68884265 58.74601746 70.37026978 C57.29296071 68.92930511 55.8372407 67.49101911 54.37837219 66.05593872 C50.40113922 62.1172602 46.61997336 58.07555216 42.97792053 53.82424927 C40.77971416 51.29345183 38.45190228 48.93516729 36.07775879 46.56832886 C35.22439941 45.71239136 34.37104004 44.85645386 33.49182129 43.97457886 C31.79623227 41.95450947 31.79623227 41.95450947 30.45275879 42.06832886 Z " fill="#172F49" transform="translate(313.5472412109375,-0.068328857421875)"/>
<path d="M0 0 C4.51388889 1.89583333 4.51388889 1.89583333 6.125 4.3125 C7.45746773 7.85887512 6.84183811 9.84647433 5.47290039 13.31665039 C4.88863029 14.82230812 4.88863029 14.82230812 4.29255676 16.35838318 C3.63920601 17.99276085 3.63920601 17.99276085 2.97265625 19.66015625 C2.30341377 21.37375084 2.30341377 21.37375084 1.62065125 23.1219635 C0.65645032 25.58779819 -0.31145261 28.05176887 -1.28601074 30.51348877 C-3.60485361 36.37234124 -5.88983159 42.24443352 -8.17879868 48.11500549 C-8.95128588 50.09514247 -9.72508446 52.07476328 -10.49905396 54.05432129 C-14.82867092 65.13782237 -19.00965483 76.27283107 -23.125 87.4375 C-28.44138514 101.82574453 -33.83309449 116.18340188 -39.30993652 130.51141357 C-40.08997921 132.55225455 -40.86906656 134.59346098 -41.64709473 136.6350708 C-42.73300457 139.48316314 -43.8229115 142.32969335 -44.9140625 145.17578125 C-45.22596527 145.99491501 -45.53786804 146.81404877 -45.85922241 147.65800476 C-48.66931446 154.96115709 -51.76274695 162.13399868 -54.875 169.3125 C-53.81899597 169.30361755 -52.76299194 169.29473511 -51.67498779 169.2855835 C-41.72818038 169.20453319 -31.78143987 169.14455168 -21.83437729 169.10525131 C-16.7203369 169.08436736 -11.60656287 169.05603484 -6.49267578 169.01074219 C-1.55841704 168.96731345 3.37558535 168.94336898 8.31002045 168.93299103 C10.19353014 168.92559432 12.07702564 168.91115039 13.96042633 168.88957977 C16.59664848 168.86058508 19.23180838 168.85654231 21.86816406 168.85839844 C22.64859573 168.84401733 23.4290274 168.82963623 24.23310852 168.81481934 C27.74846721 168.84164007 29.73239032 169.01700088 32.58026123 171.16046143 C34.61931325 174.00114795 35.09425034 175.8114321 35.125 179.3125 C33.74609375 182.14453125 33.74609375 182.14453125 31.5625 185.125 C31.16337402 185.67486572 30.76424805 186.22473145 30.35302734 186.79125977 C25.69694076 193.09626789 20.63762482 199.09369366 15.61328125 205.10546875 C12.47666586 208.86614973 9.43942466 212.69394504 6.4375 216.5625 C2.49679515 221.63024931 -1.58365671 226.55083853 -5.75732422 231.42773438 C-9.47320129 235.78945061 -13.01538653 240.2693884 -16.5324707 244.79199219 C-20.88335399 250.36764259 -25.37862838 255.81915929 -29.88720703 261.26757812 C-32.9799339 265.0065082 -36.04924781 268.75888658 -39.0625 272.5625 C-42.53044231 276.92706842 -46.12382862 281.17619761 -49.73461914 285.42236328 C-54.18559277 290.66179509 -58.53692427 295.97931013 -62.875 301.3125 C-65.12646714 304.06603647 -67.37964191 306.81816987 -69.6328125 309.5703125 C-71.1090486 311.37574411 -72.58306736 313.18299141 -74.0546875 314.9921875 C-77.61597439 319.36458599 -81.20210386 323.71014625 -84.86303711 327.99926758 C-90.54241703 334.6563686 -96.00217343 341.45746419 -101.36669922 348.37011719 C-102.98180825 350.45004718 -104.60191715 352.52601708 -106.22265625 354.6015625 C-113.61601578 364.07752945 -120.94343391 373.60215136 -128.23095703 383.15966797 C-129.95133959 385.41246474 -131.67629686 387.66169693 -133.40234375 389.91015625 C-133.98363037 390.66804443 -134.56491699 391.42593262 -135.16381836 392.20678711 C-136.26664985 393.64444888 -137.37026829 395.08150749 -138.47485352 396.51782227 C-140.92215944 399.71103351 -143.32034556 402.92233933 -145.6328125 406.21484375 C-148.71772344 410.47675032 -148.71772344 410.47675032 -151.875 411.3125 C-155.3125 411.8125 -155.3125 411.8125 -158.875 411.3125 C-162.42703078 408.21391996 -163.66978794 406.98227812 -164.24609375 402.29296875 C-163.73974198 396.86167981 -161.9385125 392.25988118 -160 387.1875 C-159.15585093 384.90818139 -158.31346532 382.62820906 -157.47265625 380.34765625 C-157.03711426 379.17348145 -156.60157227 377.99930664 -156.15283203 376.78955078 C-140.61198512 334.50205715 -126.92539044 291.42301518 -113.875 248.3125 C-116.8552241 247.98847614 -119.83571057 247.66728889 -122.81640625 247.34765625 C-123.64773071 247.25697876 -124.47905518 247.16630127 -125.33557129 247.07287598 C-137.46092443 245.77867952 -149.60914858 245.39039621 -161.79296875 245.06640625 C-162.58668381 245.04517197 -163.38039886 245.02393768 -164.19816589 245.00205994 C-168.20221004 244.89604102 -172.20627648 244.7957137 -176.21069336 244.70483398 C-197.81895162 244.19254032 -197.81895162 244.19254032 -201.5 241.125 C-203.19761371 237.65260832 -203.62401177 236.13246001 -202.875 232.3125 C-199.81725987 226.94471532 -195.39318776 222.76447504 -191 218.49609375 C-187.85734752 215.26678725 -185.11122265 211.74627831 -182.29296875 208.234375 C-179.74900287 205.16024498 -177.09358921 202.23099934 -174.375 199.3125 C-170.1414515 194.75767497 -166.1483217 190.06001676 -162.24609375 185.21875 C-159.54866954 181.9125167 -156.78365061 178.67112758 -154 175.4375 C-150.10523236 170.91219789 -146.22559131 166.37546809 -142.375 161.8125 C-137.58317314 156.13799087 -132.75735943 150.49335082 -127.91796875 144.859375 C-125.87332321 142.47866839 -123.83473474 140.09297191 -121.80078125 137.703125 C-117.17141334 132.270191 -112.51830933 126.88139841 -107.6875 121.625 C-104.51669258 118.17234304 -101.49464969 114.65719034 -98.5625 111 C-94.48880742 105.94573717 -90.12529826 101.2338505 -85.67919922 96.51123047 C-81.59433635 92.14886008 -77.78742981 87.62271857 -74.05078125 82.95703125 C-71.744683 80.15410752 -69.33348469 77.48246725 -66.875 74.8125 C-61.98019568 69.48646872 -57.40915923 63.94609254 -52.875 58.3125 C-45.8489239 49.65919981 -38.67721425 41.13910519 -31.45898438 32.64648438 C-30.05519194 30.99416437 -28.65228202 29.34110202 -27.25 27.6875 C-26.79270508 27.14843018 -26.33541016 26.60936035 -25.86425781 26.05395508 C-22.95106986 22.61057526 -20.08933224 19.12980074 -17.25 15.625 C-16.528125 14.74972656 -15.80625 13.87445313 -15.0625 12.97265625 C-13.54126624 11.12272733 -12.04278168 9.25395203 -10.5625 7.37109375 C-4.81297756 0.38814335 -4.81297756 0.38814335 0 0 Z " fill="#162F49" transform="translate(473.875,58.6875)"/>
<path d="M0 0 C10.11813466 9.38909876 15.22746028 22.88586082 16.00390625 36.5234375 C15.93771532 43.20872176 15.57402687 49.85881437 11.4140625 55.34765625 C4.2777396 62.10552721 -5.33934722 61.79318086 -14.62719727 61.95336914 C-15.94071198 61.98610208 -17.2542267 62.01883501 -18.6075449 62.05255985 C-22.74587912 62.15248229 -26.88440119 62.22192594 -31.0234375 62.28515625 C-32.30502117 62.30574474 -33.58660484 62.32633324 -34.90702438 62.34754562 C-44.05881494 62.48356277 -53.21065695 62.55137645 -62.36328125 62.59375 C-63.06281394 62.59704732 -63.76234663 62.60034464 -64.48307729 62.60374188 C-71.11054325 62.63432986 -77.73801603 62.66091356 -84.36553097 62.67816067 C-92.73467885 62.70024276 -101.10320192 62.74286474 -109.4721002 62.81159824 C-115.42859993 62.85883127 -121.38492989 62.88308775 -127.34161097 62.89035755 C-130.87459071 62.89528841 -134.40684725 62.91013851 -137.93961906 62.95010185 C-141.85308458 62.99384718 -145.76572456 62.99007308 -149.67944336 62.98217773 C-150.83209183 63.00217834 -151.9847403 63.02217896 -153.1723175 63.04278564 C-159.49269799 62.98545003 -163.23502166 62.36436355 -167.82849979 57.86612034 C-171.17437816 53.43935104 -170.24699689 47.48764314 -170.2734375 42.22265625 C-170.2940625 41.22298828 -170.3146875 40.22332031 -170.3359375 39.19335938 C-170.4134312 24.28550937 -164.51488592 13.37661892 -154.41796875 2.66015625 C-117.69456127 -33.76371284 -38.70844268 -32.80503154 0 0 Z " fill="#152E48" transform="translate(252.0234375,208.71484375)"/>
<path d="M0 0 C0.81726563 0.05929688 1.63453125 0.11859375 2.4765625 0.1796875 C15.50880129 1.9667169 27.94102739 9.88014508 36 20 C41.93942951 28.28937771 46.54863638 37.69713477 47 48 C47.05994141 49.15435547 47.05994141 49.15435547 47.12109375 50.33203125 C47.49259466 64.2086827 43.48048864 77.5653709 34.37890625 88.2578125 C24.3023873 98.74882655 11.44587529 106.10055019 -3.32421875 107.16796875 C-19.27164726 107.29976568 -32.48286935 101.92899336 -44.0859375 91.04296875 C-52.10522702 82.76251463 -57.99275815 71.57412458 -59 60 C-59.08121094 59.1028125 -59.16242188 58.205625 -59.24609375 57.28125 C-59.90624753 42.39778288 -55.32060912 29.60203289 -45.74609375 18.3515625 C-33.52367485 5.28554166 -17.89221752 -1.42585795 0 0 Z " fill="#162F49" transform="translate(181,67)"/>
<path d="M0 0 C0.8370181 -0.00382555 1.67403621 -0.00765109 2.5364185 -0.01159257 C5.34539261 -0.0219239 8.15416237 -0.01793017 10.96315002 -0.01396179 C12.97530812 -0.01830818 14.98746456 -0.02349108 16.99961853 -0.02944946 C22.46856983 -0.04285831 27.93745211 -0.04341605 33.40641665 -0.04088616 C37.96921442 -0.03981777 42.53199814 -0.04469643 47.0947929 -0.04949158 C57.85740045 -0.06059322 68.61997311 -0.06102043 79.38258362 -0.05497742 C90.49228917 -0.04893552 101.60186813 -0.06125266 112.71155208 -0.08254749 C122.2445489 -0.10014948 131.77750537 -0.10616707 141.31051785 -0.10290974 C147.00654068 -0.10109456 152.70247322 -0.1037565 158.39848137 -0.11762428 C163.75417918 -0.13017524 169.10967931 -0.1282844 174.46537399 -0.11521339 C176.43221032 -0.11284213 178.39906045 -0.1156019 180.36588097 -0.12383652 C183.04851369 -0.13425915 185.73047758 -0.1262395 188.41308594 -0.11352539 C189.19343765 -0.12089968 189.97378937 -0.12827396 190.7777881 -0.13587171 C196.72084544 -0.07651775 199.788507 1.43983304 204.08253479 5.38569641 C206.44239489 9.40619881 206.81776259 12.71278166 205.77003479 17.26069641 C203.44484276 21.18218015 201.12614193 23.8086607 196.77003479 25.26069641 C194.05833928 25.36089836 191.37223286 25.40412982 188.6603241 25.40113831 C187.82416042 25.40410943 186.98799674 25.40708055 186.12649477 25.41014171 C183.31446812 25.41883851 180.50248399 25.42033778 177.69044495 25.42182922 C175.67843535 25.42645666 173.66642663 25.43148121 171.65441895 25.43687439 C166.18129526 25.45000649 160.70818385 25.45644478 155.23504686 25.46088505 C151.81762431 25.4638141 148.40020513 25.46791856 144.98278427 25.47238922 C134.29605583 25.48606548 123.60933507 25.49573185 112.92259848 25.49959111 C100.57563962 25.50407414 88.22879133 25.52163288 75.8818661 25.55059171 C66.3446491 25.57218622 56.80746326 25.58229418 47.27022207 25.58363223 C41.57082267 25.58468174 35.87152719 25.59062069 30.17215347 25.60845184 C24.81237654 25.62489424 19.45278209 25.62710668 14.09298897 25.61831284 C12.12453664 25.61754044 10.15607465 25.62191174 8.18764687 25.63177109 C5.50278313 25.64443152 2.81857151 25.63864607 0.13371277 25.62818909 C-1.03783798 25.64027369 -1.03783798 25.64027369 -2.23305643 25.65260243 C-6.75229317 25.61136591 -9.62702059 25.03516997 -13.22996521 22.26069641 C-16.3804251 18.56705379 -16.74981046 15.1759178 -16.58543396 10.47944641 C-16.02694066 6.99346627 -14.5286915 4.87869025 -12.22996521 2.26069641 C-8.48819276 -0.37116726 -4.39321761 -0.02121616 0 0 Z " fill="#183049" transform="translate(99.22996520996094,371.7393035888672)"/>
<path d="M0 0 C1.27739548 -0.00365067 2.55479095 -0.00730133 3.87089539 -0.01106262 C7.35435358 -0.02041808 10.83752817 -0.01109211 14.3209641 0.00226951 C17.97719533 0.01364005 21.63341374 0.00947224 25.28965759 0.00752258 C31.42687578 0.00664148 37.56398313 0.01768229 43.70117188 0.03613281 C50.78466944 0.05730706 57.86800484 0.06080719 64.95152766 0.05457085 C71.78271874 0.04886587 78.61385304 0.05453561 85.44503593 0.0657444 C88.34478245 0.07037441 91.24449405 0.0712712 94.14424324 0.06915855 C98.19650816 0.06691606 102.24854826 0.08142077 106.30078125 0.09765625 C108.09562454 0.09394012 108.09562454 0.09394012 109.92672729 0.09014893 C123.73872356 0.1784079 123.73872356 0.1784079 128.96069336 5.05981445 C131.3486657 8.78224192 132.08569336 10.96115073 132.08569336 15.37231445 C130.19601551 20.72640169 127.14504413 23.84263907 122.08569336 26.37231445 C120.30236829 26.47202853 118.51530487 26.50740031 116.72920227 26.51275635 C115.59224411 26.51846649 114.45528595 26.52417664 113.28387451 26.53005981 C112.03036194 26.53117767 110.77684937 26.53229553 109.48535156 26.53344727 C108.16981796 26.53841217 106.85428436 26.54337708 105.49888611 26.54849243 C101.88294788 26.56162727 98.26702824 26.56806396 94.65106988 26.57250309 C92.39129591 26.5754332 90.13152702 26.57953798 87.8717556 26.58400726 C80.79976624 26.59768754 73.72778849 26.60735054 66.65578681 26.61120915 C58.49598071 26.61568575 50.33634247 26.63321277 42.1765874 26.66220975 C35.86820614 26.68384783 29.55987202 26.69391463 23.25145406 26.69525027 C19.48467668 26.69629715 15.71805699 26.70217943 11.95131874 26.72006989 C8.40461448 26.73658656 4.85818577 26.73868882 1.31145668 26.72993088 C-0.60399763 26.72879705 -2.51944293 26.74248829 -4.43484497 26.75668335 C-10.68142656 26.72646056 -15.46076046 26.54994298 -20.91430664 23.37231445 C-23.80655889 20.18342094 -25.16207916 17.62763615 -25.41430664 13.37231445 C-25.15276969 9.09781989 -23.86774609 6.54726186 -20.91430664 3.37231445 C-13.96978005 -0.03804556 -7.64211758 -0.0489012 0 0 Z " fill="#1A314A" transform="translate(107.914306640625,311.627685546875)"/>
<path d="M0 0 C1.60236763 -0.01268921 1.60236763 -0.01268921 3.23710632 -0.02563477 C4.39881851 -0.01956207 5.5605307 -0.01348938 6.75744629 -0.00723267 C8.60454948 -0.0151181 8.60454948 -0.0151181 10.4889679 -0.02316284 C13.85892969 -0.0340936 17.2283379 -0.03154672 20.59826851 -0.02202559 C24.12867082 -0.01441819 27.65904986 -0.02147759 31.18945312 -0.02618408 C37.1175968 -0.0316385 43.04562826 -0.02445831 48.97375488 -0.01016235 C55.82267611 0.00616365 62.67132939 0.00087491 69.52024412 -0.01564157 C75.40574798 -0.02926543 81.29117128 -0.03117172 87.17668581 -0.02332556 C90.68958711 -0.01865396 94.20236257 -0.01800998 97.71525574 -0.02793503 C101.63176855 -0.03822795 105.54798242 -0.02395251 109.46447754 -0.00723267 C111.20704582 -0.01634171 111.20704582 -0.01634171 112.9848175 -0.02563477 C114.58718513 -0.01294556 114.58718513 -0.01294556 116.22192383 0 C117.14736244 0.00113108 118.07280106 0.00226215 119.02628326 0.00342751 C123.29946653 0.62757735 126.95083254 2.98468512 129.61096191 6.38095093 C130.85128939 10.5729438 131.11047104 14.23207994 129.36096191 18.25595093 C125.34069164 23.13770768 125.34069164 23.13770768 121.61096191 24.38095093 C119.9097562 24.48659262 118.20479688 24.53585943 116.50039673 24.55262756 C114.91477432 24.57164627 114.91477432 24.57164627 113.29711914 24.59104919 C111.55779114 24.60439552 111.55779114 24.60439552 109.7833252 24.61801147 C108.56196869 24.63112366 107.34061218 24.64423584 106.08224487 24.65774536 C102.73096682 24.69240443 99.37971228 24.72258431 96.02837229 24.75013709 C93.93426704 24.76764466 91.84017876 24.78652024 89.74608994 24.80588722 C82.43952726 24.87343152 75.13294108 24.93583164 67.82629395 24.99349976 C61.01716119 25.04737638 54.20819835 25.1124822 47.39921772 25.18283814 C41.55204783 25.242758 35.70484197 25.29480958 29.85754573 25.3407653 C26.3658304 25.36834225 22.87421419 25.39909813 19.38260269 25.43778038 C15.48758948 25.48061117 11.59255828 25.50709364 7.6973877 25.53207397 C6.54188416 25.54704422 5.38638062 25.56201447 4.19586182 25.57743835 C3.13314056 25.58165802 2.07041931 25.58587769 0.97549438 25.59022522 C0.05483248 25.59814433 -0.86582943 25.60606344 -1.81439018 25.61422253 C-6.91366597 25.15221131 -10.10403351 23.25256347 -13.38903809 19.38095093 C-14.59547375 15.76164394 -14.71172368 13.18864088 -14.38903809 9.38095093 C-11.10187627 3.05012076 -7.18426412 0.00878065 0 0 Z " fill="#152D47" transform="translate(97.3890380859375,430.6190490722656)"/>
<path d="M0 0 C3.90851199 1.58431453 6.52367356 4.26635095 9.421875 7.2265625 C9.92672424 7.73424164 10.43157349 8.24192078 10.95172119 8.76498413 C12.55592096 10.38033842 14.15300856 12.00252209 15.75 13.625 C16.83938107 14.72441698 17.9292199 15.82338059 19.01953125 16.921875 C21.68501885 19.6093602 24.34415143 22.30299021 27 25 C26.34 25.66 25.68 26.32 25 27 C21.43326807 23.48259521 17.87307049 19.95875538 14.31884766 16.42871094 C13.10807151 15.22801105 11.89550899 14.0291098 10.68115234 12.83203125 C8.93898662 11.11404252 7.20328456 9.38975125 5.46875 7.6640625 C4.92190552 7.12754059 4.37506104 6.59101868 3.81164551 6.03823853 C2.50258902 4.72957713 1.24578094 3.36903374 0 2 C0 1.34 0 0.68 0 0 Z " fill="#333F51" transform="translate(362,59)"/>
<path d="M0 0 C0.66 0 1.32 0 2 0 C1.84660156 0.78632813 1.69320313 1.57265625 1.53515625 2.3828125 C0.87005679 6.87830226 0.64586315 11.33883176 0.4375 15.875 C0.37272461 17.19371094 0.37272461 17.19371094 0.30664062 18.5390625 C0.20130661 20.69255797 0.10022351 22.84626064 0 25 C-0.33 25 -0.66 25 -1 25 C-1.33 20.38 -1.66 15.76 -2 11 C-2.66 11 -3.32 11 -4 11 C-4.35858439 7.14521782 -4.2754818 5.42240542 -2.125 2.125 C-1.42375 1.42375 -0.7225 0.7225 0 0 Z " fill="#20354C" transform="translate(424,373)"/>
<path d="M0 0 C0.66 0.33 1.32 0.66 2 1 C-9.52164009 14.6332574 -9.52164009 14.6332574 -15 21 C-15 16.63840788 -12.38248565 14.30789262 -9.75 11.0625 C-9.25886719 10.44181641 -8.76773437 9.82113281 -8.26171875 9.18164062 C-5.66671253 5.93269284 -3.02063577 2.86960398 0 0 Z " fill="#7E8386" transform="translate(413,95)"/>
<path d="M0 0 C0.33 0 0.66 0 1 0 C1.36692116 2.49870275 1.7187099 4.99809525 2.0625 7.5 C2.16626953 8.19609375 2.27003906 8.8921875 2.37695312 9.609375 C3.05235795 14.63997643 2.80733869 18.98659609 2 24 C0.22945376 20.95882646 -0.20887055 18.87618352 -0.0625 15.375 C0.11438333 12.05753853 0.11438333 12.05753853 -1 9 C-1.23333333 2.46666667 -1.23333333 2.46666667 0 0 Z " fill="#303E51" transform="translate(265,232)"/>
<path d="M0 0 C3.68069887 1.53643852 5.98775204 3.78150945 8.75 6.625 C9.54921875 7.44226562 10.3484375 8.25953125 11.171875 9.1015625 C12.07679688 10.04128906 12.07679688 10.04128906 13 11 C12.34 11.66 11.68 12.32 11 13 C9.16052663 11.21427748 7.32842259 9.42197551 5.5 7.625 C4.71302734 6.86316406 4.71302734 6.86316406 3.91015625 6.0859375 C2.56846819 4.76167396 1.28004185 3.38394135 0 2 C0 1.34 0 0.68 0 0 Z " fill="#384355" transform="translate(370,34)"/>
<path d="M0 0 C2.8125 0.0625 2.8125 0.0625 6 1 C9 6.5 9 6.5 9 10 C8.01 10 7.02 10 6 10 C4.23537317 6.91190305 4 5.76687864 4 2 C2.68 1.34 1.36 0.68 0 0 Z " fill="#213044" transform="translate(500,228)"/>
<path d="M0 0 C1.32365626 3.97096878 0.24318252 6.06325535 -1 10 C-1.185625 10.763125 -1.37125 11.52625 -1.5625 12.3125 C-2 14 -2 14 -3 16 C-3.66 16 -4.32 16 -5 16 C-3.90301833 10.30860098 -2.45946923 5.25432063 0 0 Z " fill="#232F44" transform="translate(356,323)"/>
<path d="M0 0 C-0.17625835 2.37948772 -0.69719773 3.70225849 -2.40234375 5.37890625 C-3.90649092 6.62115486 -5.45129851 7.81376056 -7 9 C-7.33 8.01 -7.66 7.02 -8 6 C-3.85714286 0 -3.85714286 0 0 0 Z " fill="#15273E" transform="translate(92,432)"/>
<path d="M0 0 C0 4.65280387 -2.50916389 6.49774909 -5.6875 9.75 C-6.450625 10.4925 -7.21375 11.235 -8 12 C-8.66 11.67 -9.32 11.34 -10 11 C-8.52116808 9.35386588 -7.04192523 7.70810092 -5.5625 6.0625 C-4.73878906 5.14597656 -3.91507813 4.22945313 -3.06640625 3.28515625 C-1 1 -1 1 0 0 Z " fill="#2C3549" transform="translate(141,80)"/>
<path d="M0 0 C6.75 0.75 6.75 0.75 9 3 C6.6875 3.625 6.6875 3.625 4 4 C1 2 1 2 0 0 Z " fill="#27384E" transform="translate(470,59)"/>
<path d="M0 0 C1.0625 1.875 1.0625 1.875 2 4 C1.67 4.66 1.34 5.32 1 6 C-0.65 6 -2.3 6 -4 6 C-1.125 1.125 -1.125 1.125 0 0 Z " fill="#283950" transform="translate(388,155)"/>
<path d="M0 0 C0.66 0 1.32 0 2 0 C1.67 1.65 1.34 3.3 1 5 C-0.98 5.66 -2.96 6.32 -5 7 C-1.125 1.125 -1.125 1.125 0 0 Z " fill="#2A384C" transform="translate(295,263)"/>
<path d="M0 0 C0.33 0.99 0.66 1.98 1 3 C-1.52053595 4.26026798 -2.8542098 3.91874445 -5.625 3.5625 C-6.85089844 3.40974609 -6.85089844 3.40974609 -8.1015625 3.25390625 C-8.72804687 3.17011719 -9.35453125 3.08632812 -10 3 C-10 2.67 -10 2.34 -10 2 C-6.7 1.34 -3.4 0.68 0 0 Z " fill="#2F3C4F" transform="translate(148,187)"/>
<path d="M0 0 C3.36720387 1.39332574 4.9859524 2.9789286 7 6 C4 6 4 6 1.8125 4.125 C0 2 0 2 0 0 Z " fill="#2C384B" transform="translate(363,27)"/>
<path d="M0 0 C0 3 0 3 -2 6 C-2 6.66 -2 7.32 -2 8 C-2.99 8 -3.98 8 -5 8 C-4.45773019 4.20411134 -2.79872437 2.52788007 0 0 Z " fill="#0C1C33" transform="translate(394,149)"/>
<path d="M0 0 C0.66 0.33 1.32 0.66 2 1 C0.35 2.98 -1.3 4.96 -3 7 C-3.99 6.67 -4.98 6.34 -6 6 C-4.02 4.02 -2.04 2.04 0 0 Z " fill="#677075" transform="translate(413,95)"/>
</svg>
