<svg xmlns="http://www.w3.org/2000/svg" width="509" height="514"><path fill="#172F49" d="m313.547-.068 2.832-.024q2.41-.019 4.82-.06c12.775-.08 21.846 5.237 30.811 13.92a804 804 0 0 1 4.181 4.193l2.27 2.27q2.359 2.365 4.712 4.736 3.573 3.598 7.161 7.181l4.607 4.625 2.135 2.138c3.257 3.289 6.422 6.613 9.447 10.117 3.544 4.103 7.313 7.936 11.16 11.753l2.123 2.118q3.313 3.304 6.632 6.601l4.529 4.516Q416.48 79.512 422 85c-1.647 4.45-3.946 7.597-7.062 11.125q-1.498 1.728-2.993 3.457l-1.507 1.737c-2.777 3.246-5.42 6.604-8.075 9.95L400 114l-1.557 1.978c-3.684 4.258-6.367 6.517-12.074 7.07q-3.213.089-6.428.057l-3.465.055q-3.615.045-7.23.036a587 587 0 0 0-11.006.103q-3.524.033-7.049.056l-3.296.038c-8.892-.048-16.787-1.292-23.404-7.647-7.13-8.347-6.01-18.808-5.882-29.125q.012-2.67.018-5.342c.015-4.661.054-9.321.098-13.982.041-4.766.06-9.533.08-14.299.042-9.333.11-18.665.195-27.998l-2 1c-2.674.106-5.322.15-7.997.151l-2.537.013q-4.236.019-8.474.025l-6.064.026q-6.563.027-13.124.045-10.488.032-20.974.077-20.524.081-41.05.15c-38.593.133-77.187.274-115.78.513l-2.911.018c-10.823.067-21.644.152-32.466.279q-4.19.048-8.381.078c-3.719.03-7.437.077-11.156.13-1.057.006-2.113.01-3.202.015-5.306.1-9.417.29-13.884 3.48-3.09 4.056-3.427 7.562-3.378 12.501l-.013 2.274c-.01 2.522 0 5.044.01 7.566q-.005 2.734-.014 5.47c-.013 5.016-.006 10.033.003 15.05.007 5.407-.004 10.815-.012 16.223-.013 10.596-.01 21.193-.002 31.79q.01 12.915.005 25.831l-.002 3.71-.003 7.461c-.008 23.336.002 46.671.018 70.007q.018 30.048-.003 60.096a64186 64186 0 0 0-.01 77.182l.001 3.695q.003 12.903-.009 25.806-.013 15.72.01 31.442.013 8.025.001 16.048-.013 7.342.012 14.684a889 889 0 0 1-.006 5.32c-.009 2.405 0 4.81.014 7.217l-.02 2.097c.052 4.552 1 7.667 3.398 11.53 2.461 1.844 2.461 1.844 5 3l2 1c2.393.09 4.756.12 7.148.104l2.24-.003q3.716-.007 7.43-.027l5.291-.013q7.034-.019 14.067-.05 5.433-.02 10.865-.038c11.266-.037 22.532-.089 33.798-.142q6.292-.03 12.585-.058c36.634-.168 73.269-.357 109.903-.555l16.758-.09 3.273-.018q23.455-.124 46.911-.208 16.495-.06 32.989-.157c5.92-.034 11.839-.062 17.759-.073q8.019-.015 16.038-.08 2.826-.018 5.653-.014c2.503.002 5.004-.02 7.507-.048l2.157.02c4.969-.094 7.805-1.428 11.628-4.55 2.112-3.168 2.249-3.883 2.23-7.496l-.003-2.828-.04-3.113-.019-3.272c-.109-12.188-.488-24.372-.883-36.553-.066-2.16-.117-4.32-.166-6.48a228 228 0 0 0-.377-8.598c-.367-7.416-.342-12.78 4.78-18.504l1.916-1.906q1.93-2.112 3.855-4.23l1.915-2.041c2.581-2.851 4.817-5.91 7.042-9.041 1.201-1.682 2.435-3.344 3.75-4.938h2q.396 15.44.782 30.883.179 7.173.364 14.348c.94 36.632.94 36.632.983 50.5l.015 2.659c-.025 11.361-2.72 20.793-10.144 29.61-11.405 10.55-23.092 11.451-37.913 11.492q-2.563.023-5.125.05c-4.658.044-9.317.07-13.975.094-5.004.028-10.007.072-15.01.114-10.783.087-21.564.152-32.346.212q-9.828.056-19.656.12c-27.808.178-55.617.315-83.426.435q-12.009.053-24.018.11c-23.066.111-46.132.215-69.197.294-11.09.038-22.18.086-33.269.163q-9.132.063-18.266.1-5.022.021-10.042.067c-3.544.033-7.087.048-10.631.057l-3.024.043c-11.521-.014-21.702-3.6-30.332-11.355-8.726-9.151-11.93-19.172-11.904-31.632l-.007-2.28q-.009-3.788-.006-7.574l-.011-5.482q-.014-7.536-.017-15.07-.007-8.127-.022-16.253c-.02-13.083-.03-26.167-.039-39.25l-.015-18.487a128915 128915 0 0 1-.045-79.405c-.008-22.069-.033-44.138-.067-66.206q-.049-32.964-.054-65.927c-.002-12.337-.01-24.675-.036-37.012q-.034-15.76-.02-31.519c.004-5.359.002-10.717-.017-16.075q-.026-7.367-.001-14.733.004-2.656-.014-5.314C-.59 37.341.208 24.243 10 14 17.732 6.204 25.344 1.93 36.394 1.81l1.97-.025c2.221-.027 4.442-.046 6.663-.066l4.951-.055q6.986-.074 13.971-.137 4.491-.04 8.982-.086C122.37.95 171.811.708 221.25.438l3.095-.017a157085 157085 0 0 1 55.246-.294l2.583-.014Q291.6.066 301.027.03q6.26-.028 12.52-.098M344 42v56h54c-1.686-3.371-2.68-4.924-5.237-7.448l-1.994-1.984-2.156-2.115-2.228-2.212a3074 3074 0 0 0-7.072-6.991q-3.514-3.471-7.02-6.948-2.18-2.162-4.367-4.314a203 203 0 0 1-11.4-12.232c-2.199-2.53-4.527-4.89-6.901-7.256l-2.586-2.594c-1.696-2.02-1.696-2.02-3.039-1.906"/><path fill="#162F49" d="M473.875 58.688c4.514 1.895 4.514 1.895 6.125 4.312 1.332 3.546.717 5.534-.652 9.004l-1.18 3.042-1.32 3.302-1.352 3.461a1887 1887 0 0 1-2.907 7.392c-2.319 5.859-4.604 11.73-6.893 17.602q-1.159 2.97-2.32 5.939c-4.33 11.083-8.51 22.218-12.626 33.383a4118 4118 0 0 1-16.185 43.074q-1.17 3.06-2.337 6.124a4967 4967 0 0 1-3.267 8.54l-.945 2.483c-2.81 7.303-5.904 14.475-9.016 21.654l3.2-.027q14.92-.12 29.84-.18 7.672-.03 15.342-.095 7.402-.063 14.803-.078 2.826-.01 5.65-.043c2.637-.029 5.272-.033 7.908-.031l2.365-.044c3.515.027 5.5.203 8.347 2.346 2.04 2.84 2.514 4.65 2.545 8.152-1.379 2.832-1.379 2.832-3.562 5.813l-1.21 1.666c-4.656 6.305-9.715 12.302-14.74 18.314-3.136 3.76-6.174 7.588-9.175 11.457-3.941 5.068-8.022 9.988-12.195 14.865-3.716 4.362-7.258 8.842-10.775 13.364-4.351 5.576-8.847 11.028-13.355 16.476a689 689 0 0 0-9.175 11.295c-3.468 4.365-7.062 8.614-10.673 12.86-4.45 5.24-8.802 10.557-13.14 15.89q-3.377 4.13-6.758 8.258-2.214 2.707-4.422 5.422c-3.561 4.372-7.147 8.718-10.808 13.007-5.68 6.657-11.14 13.458-16.504 20.37q-2.424 3.12-4.856 6.232c-7.393 9.476-14.72 19-22.008 28.558q-2.581 3.379-5.171 6.75l-1.762 2.297-3.31 4.311c-2.448 3.194-4.846 6.405-7.159 9.697-3.085 4.262-3.085 4.262-6.242 5.098-3.437.5-3.437.5-7 0-3.552-3.099-4.795-4.33-5.371-9.02.506-5.43 2.307-10.033 4.246-15.105q1.267-3.42 2.527-6.84l1.32-3.558C333.263 393.19 346.95 350.111 360 307a6104 6104 0 0 0-8.941-.965l-2.52-.275c-12.125-1.294-24.273-1.682-36.457-2.006l-2.405-.064q-6.006-.16-12.013-.298c-21.608-.512-21.608-.512-25.289-3.58-1.698-3.472-2.124-4.992-1.375-8.812 3.058-5.368 7.482-9.548 11.875-13.816 3.143-3.23 5.889-6.75 8.707-10.262 2.544-3.074 5.2-6.004 7.918-8.922 4.234-4.555 8.227-9.252 12.129-14.094 2.697-3.306 5.462-6.547 8.246-9.781 3.895-4.525 7.774-9.062 11.625-13.625 4.792-5.675 9.618-11.32 14.457-16.953q3.067-3.571 6.117-7.156c4.63-5.433 9.283-10.822 14.113-16.078a208 208 0 0 0 9.125-10.625c4.074-5.055 8.438-9.767 12.884-14.49 4.085-4.362 7.892-8.888 11.628-13.553 2.306-2.803 4.718-5.475 7.176-8.145 4.895-5.326 9.466-10.866 14-16.5 7.026-8.653 14.198-17.173 21.416-25.666q2.106-2.478 4.209-4.959l1.386-1.634a635 635 0 0 0 8.614-10.428l2.188-2.653q2.28-2.776 4.5-5.601c5.749-6.983 5.749-6.983 10.562-7.371"/><path fill="#152E48" d="M252.023 208.715c10.119 9.389 15.228 22.886 16.004 36.523-.066 6.686-.43 13.336-4.59 18.825-7.136 6.757-16.753 6.445-26.04 6.605l-3.981.1c-4.138.1-8.277.169-12.416.232l-3.884.062c-9.151.136-18.303.204-27.456.247l-2.12.01q-9.941.047-19.882.074-12.554.032-25.107.133c-5.956.048-11.912.072-17.87.08-3.532.004-7.064.019-10.597.059-3.914.044-7.826.04-11.74.032l-3.493.06c-6.32-.057-10.063-.678-14.656-5.176-3.346-4.427-2.419-10.379-2.445-15.644l-.062-3.029c-.078-14.908 5.82-25.817 15.917-36.533 36.724-36.424 115.71-35.465 154.418-2.66"/><path fill="#162F49" d="m181 67 2.477.18C196.509 68.967 208.94 76.88 217 87c5.94 8.29 10.549 17.697 11 28l.121 2.332c.372 13.877-3.64 27.233-12.742 37.926-10.077 10.49-22.933 17.843-37.703 18.91-15.948.132-29.159-5.239-40.762-16.125-8.02-8.28-13.907-19.469-14.914-31.043l-.246-2.719c-.66-14.883 3.925-27.679 13.5-38.93C147.476 72.287 163.108 65.575 181 67"/><path fill="#183049" d="M99.23 371.74c.837-.005 1.674-.008 2.536-.012 2.81-.01 5.618-.007 8.427-.003l6.037-.015c5.469-.014 10.937-.014 16.406-.012q6.845 0 13.689-.008 16.143-.016 32.288-.006c11.11.006 22.219-.006 33.329-.027q14.299-.026 28.598-.02c5.697.001 11.392-.001 17.088-.015q8.034-.019 16.067.002 2.95.004 5.9-.009c2.683-.01 5.365-.002 8.048.01l2.365-.022c5.943.06 9.01 1.576 13.304 5.522 2.36 4.02 2.736 7.327 1.688 11.875-2.325 3.921-4.644 6.548-9 8-2.712.1-5.398.143-8.11.14l-2.534.01q-4.218.01-8.436.011l-6.036.015q-8.21.019-16.419.024-5.126.005-10.252.012-16.03.02-32.06.027-18.52.007-37.041.05-14.306.033-28.612.034-8.55 0-17.098.025-8.04.023-16.079.01-2.953-.002-5.905.013c-2.685.013-5.37.007-8.054-.004l-2.367.025c-4.52-.041-7.394-.618-10.997-3.392-3.15-3.694-3.52-7.085-3.355-11.781.558-3.486 2.056-5.601 4.355-8.219 3.742-2.632 7.837-2.282 12.23-2.26"/><path fill="#1A314A" d="m107.914 311.628 3.871-.011c3.484-.01 6.967 0 10.45.013 3.657.011 7.313.007 10.969.005q9.206 0 18.411.029c7.084.021 14.167.024 21.25.018q10.248-.006 20.494.011 4.35.007 8.7.004c4.052-.002 8.104.012 12.156.028l3.626-.007c13.812.088 13.812.088 19.034 4.97 2.388 3.722 3.125 5.9 3.125 10.312-1.89 5.354-4.94 8.47-10 11-1.783.1-3.57.135-5.356.14l-3.446.018-3.798.003-3.987.015q-5.424.019-10.848.024-3.39.004-6.779.012-10.608.02-21.216.027-12.24.007-24.48.05-9.461.034-18.924.034-5.65 0-11.3.025-5.32.023-10.64.01c-1.916-.002-3.831.012-5.747.026-6.246-.03-11.025-.206-16.479-3.384-2.892-3.189-4.248-5.745-4.5-10 .262-4.274 1.547-6.825 4.5-10 6.945-3.41 13.272-3.421 20.914-3.372"/><path fill="#152D47" d="m97.389 430.619 3.237-.026 3.52.019 3.732-.016c3.37-.011 6.74-.008 10.11.001 3.53.008 7.06 0 10.59-.004q8.893-.007 17.785.016c6.849.016 13.697.01 20.546-.006q8.828-.02 17.657-.007 5.269.008 10.538-.005c3.917-.01 7.833.004 11.75.02l3.52-.018 3.237.026 2.804.003c4.274.625 7.925 2.982 10.585 6.378 1.24 4.192 1.5 7.851-.25 11.875-4.02 4.882-4.02 4.882-7.75 6.125a98 98 0 0 1-5.11.172l-3.204.038-3.514.027-3.7.04q-5.027.051-10.055.092l-6.282.056q-10.96.1-21.92.188c-6.809.053-13.618.119-20.427.189q-8.77.09-17.541.158-5.238.04-10.475.097c-3.895.043-7.79.07-11.686.094l-3.501.045-3.22.013-2.79.024c-5.1-.462-8.29-2.361-11.575-6.233-1.206-3.62-1.323-6.192-1-10 3.287-6.33 7.205-9.372 14.389-9.381"/><path fill="#333F51" d="M362 59c3.909 1.584 6.524 4.266 9.422 7.227l1.53 1.538c1.604 1.615 3.201 3.238 4.798 4.86l3.27 3.297A3172 3172 0 0 1 389 84l-2 2a4233 4233 0 0 1-10.681-10.571q-1.815-1.802-3.638-3.597a1657 1657 0 0 1-5.212-5.168l-1.657-1.626C364.502 63.73 363.246 62.37 362 61z"/><path fill="#20354C" d="M424 373h2l-.465 2.383c-.665 4.495-.89 8.956-1.098 13.492l-.13 2.664q-.158 3.23-.307 6.461h-1l-1-14h-2c-.359-3.855-.275-5.578 1.875-8.875z"/><path fill="#7E8386" d="m413 95 2 1c-11.522 13.633-11.522 13.633-17 20 0-4.362 2.618-6.692 5.25-9.937l1.488-1.881c2.595-3.25 5.241-6.312 8.262-9.182"/><path fill="#303E51" d="M265 232h1q.549 3.748 1.063 7.5l.314 2.11c.675 5.03.43 9.377-.377 14.39-1.77-3.041-2.209-5.124-2.062-8.625.176-3.317.176-3.317-.938-6.375-.233-6.533-.233-6.533 1-9"/><path fill="#384355" d="M370 34c3.68 1.536 5.988 3.782 8.75 6.625l2.422 2.477L383 45l-2 2a1250 1250 0 0 1-5.5-5.375l-1.59-1.54c-1.342-1.323-2.63-2.701-3.91-4.085z"/><path fill="#213044" d="M500 228c2.813.063 2.813.063 6 1 3 5.5 3 5.5 3 9h-3c-1.765-3.088-2-4.233-2-8z"/><path fill="#232F44" d="M356 323c1.324 3.971.243 6.063-1 10l-.562 2.313C354 337 354 337 353 339h-2c1.097-5.691 2.54-10.746 5-16"/><path fill="#15273E" d="M92 432c-.176 2.38-.697 3.702-2.402 5.379-1.504 1.242-3.05 2.435-4.598 3.621l-1-3c4.143-6 4.143-6 8-6"/><path fill="#2C3549" d="M141 80c0 4.653-2.51 6.498-5.687 9.75L133 92l-2-1 4.438-4.937 2.496-2.778C140 81 140 81 141 80"/><path fill="#27384E" d="M470 59c6.75.75 6.75.75 9 3-2.312.625-2.312.625-5 1-3-2-3-2-4-4"/><path fill="#283950" d="M388 155c1.063 1.875 1.063 1.875 2 4l-1 2h-5c2.875-4.875 2.875-4.875 4-6"/><path fill="#2A384C" d="M295 263h2l-1 5-6 2c3.875-5.875 3.875-5.875 5-7"/><path fill="#2F3C4F" d="m148 187 1 3c-2.52 1.26-3.854.919-6.625.563l-2.477-.31L138 190v-1z"/><path fill="#2C384B" d="M363 27c3.367 1.393 4.986 2.979 7 6-3 0-3 0-5.187-1.875C363 29 363 29 363 27"/><path fill="#0C1C33" d="M394 149c0 3 0 3-2 6v2h-3c.542-3.796 2.201-5.472 5-8"/><path fill="#677075" d="m413 95 2 1-5 6-3-1z"/></svg>